#define layout_full_width 18
#define layout_full_height 18
static unsigned char layout_full_bits[] = {
   0x00, 0x00, 0x00, 0x00, 0x00, 0x00, 0x00, 0x00, 0x00, 0x00, 0x00, 0x00,
   0xfc, 0xff, 0x00, 0xfc, 0xff, 0x00, 0x84, 0x89, 0x00, 0x84, 0x89, 0x00,
   0x04, 0x81, 0x00, 0x44, 0x91, 0x00, 0x44, 0x95, 0x00, 0x44, 0x8f, 0x00,
   0x44, 0x80, 0x00, 0xfc, 0xff, 0x00, 0x00, 0x00, 0x00, 0x00, 0x00, 0x00,
   0x00, 0x00, 0x00, 0x00, 0x00, 0x00 };
